<svg width="14" height="16" viewBox="0 0 14 16" fill="none" xmlns="http://www.w3.org/2000/svg">
<path d="M1.75 15.5C1.3375 15.5 0.984375 15.3531 0.690625 15.0594C0.396875 14.7656 0.25 14.4125 0.25 14V3.5C0.25 3.0875 0.396875 2.73438 0.690625 2.44063C0.984375 2.14688 1.3375 2 1.75 2H2.5V0.5H4V2H10V0.5H11.5V2H12.25C12.6625 2 13.0156 2.14688 13.3094 2.44063C13.6031 2.73438 13.75 3.0875 13.75 3.5V14C13.75 14.4125 13.6031 14.7656 13.3094 15.0594C13.0156 15.3531 12.6625 15.5 12.25 15.5H1.75ZM1.75 14H12.25V6.5H1.75V14ZM1.75 5H12.25V3.5H1.75V5ZM7 9.5C6.7875 9.5 6.60938 9.42813 6.46563 9.28438C6.32188 9.14062 6.25 8.9625 6.25 8.75C6.25 8.5375 6.32188 8.35938 6.46563 8.21563C6.60938 8.07188 6.7875 8 7 8C7.2125 8 7.39063 8.07188 7.53438 8.21563C7.67813 8.35938 7.75 8.5375 7.75 8.75C7.75 8.9625 7.67813 9.14062 7.53438 9.28438C7.39063 9.42813 7.2125 9.5 7 9.5ZM4 9.5C3.7875 9.5 3.60938 9.42813 3.46562 9.28438C3.32187 9.14062 3.25 8.9625 3.25 8.75C3.25 8.5375 3.32187 8.35938 3.46562 8.21563C3.60938 8.07188 3.7875 8 4 8C4.2125 8 4.39062 8.07188 4.53438 8.21563C4.67812 8.35938 4.75 8.5375 4.75 8.75C4.75 8.9625 4.67812 9.14062 4.53438 9.28438C4.39062 9.42813 4.2125 9.5 4 9.5ZM10 9.5C9.7875 9.5 9.60938 9.42813 9.46563 9.28438C9.32188 9.14062 9.25 8.9625 9.25 8.75C9.25 8.5375 9.32188 8.35938 9.46563 8.21563C9.60938 8.07188 9.7875 8 10 8C10.2125 8 10.3906 8.07188 10.5344 8.21563C10.6781 8.35938 10.75 8.5375 10.75 8.75C10.75 8.9625 10.6781 9.14062 10.5344 9.28438C10.3906 9.42813 10.2125 9.5 10 9.5ZM7 12.5C6.7875 12.5 6.60938 12.4281 6.46563 12.2844C6.32188 12.1406 6.25 11.9625 6.25 11.75C6.25 11.5375 6.32188 11.3594 6.46563 11.2156C6.60938 11.0719 6.7875 11 7 11C7.2125 11 7.39063 11.0719 7.53438 11.2156C7.67813 11.3594 7.75 11.5375 7.75 11.75C7.75 11.9625 7.67813 12.1406 7.53438 12.2844C7.39063 12.4281 7.2125 12.5 7 12.5ZM4 12.5C3.7875 12.5 3.60938 12.4281 3.46562 12.2844C3.32187 12.1406 3.25 11.9625 3.25 11.75C3.25 11.5375 3.32187 11.3594 3.46562 11.2156C3.60938 11.0719 3.7875 11 4 11C4.2125 11 4.39062 11.0719 4.53438 11.2156C4.67812 11.3594 4.75 11.5375 4.75 11.75C4.75 11.9625 4.67812 12.1406 4.53438 12.2844C4.39062 12.4281 4.2125 12.5 4 12.5ZM10 12.5C9.7875 12.5 9.60938 12.4281 9.46563 12.2844C9.32188 12.1406 9.25 11.9625 9.25 11.75C9.25 11.5375 9.32188 11.3594 9.46563 11.2156C9.60938 11.0719 9.7875 11 10 11C10.2125 11 10.3906 11.0719 10.5344 11.2156C10.6781 11.3594 10.75 11.5375 10.75 11.75C10.75 11.9625 10.6781 12.1406 10.5344 12.2844C10.3906 12.4281 10.2125 12.5 10 12.5Z" fill="#0D599E"/>
</svg>
