<svg width="54" height="38" viewBox="0 0 54 38" fill="none" xmlns="http://www.w3.org/2000/svg">
<g clip-path="url(#clip0_2509_1496)">
<path d="M1.20846 7.63958C1.44945 3.92937 4.43241 1.02169 8.14588 0.837718C13.5232 0.5713 21.2091 0.25 27 0.25C32.7909 0.25 40.4767 0.5713 45.8541 0.837718C49.5677 1.02169 52.5506 3.92937 52.7916 7.63958C53.0224 11.1942 53.25 15.5682 53.25 19C53.25 22.4318 53.0224 26.8058 52.7916 30.3604C52.5506 34.0707 49.5677 36.9782 45.8541 37.1624C40.4767 37.4286 32.7909 37.75 27 37.75C21.2091 37.75 13.5232 37.4286 8.14588 37.1624C4.43241 36.9782 1.44945 34.0707 1.20846 30.3604C0.97755 26.8058 0.75 22.4318 0.75 19C0.75 15.5682 0.97755 11.1942 1.20846 7.63958Z" fill="#FC0D1B"/>
<path d="M21.375 11.5V26.5L36.375 19L21.375 11.5Z" fill="white"/>
</g>
<defs>
<clipPath id="clip0_2509_1496">
<rect width="54" height="38" fill="white"/>
</clipPath>
</defs>
</svg>
